<?xml version="1.0" encoding="UTF-8" standalone="no"?><!DOCTYPE svg PUBLIC "-//W3C//DTD SVG 1.1//EN" "http://www.w3.org/Graphics/SVG/1.1/DTD/svg11.dtd"><svg width="100%" height="100%" viewBox="0 0 4830 1266" version="1.1" xmlns="http://www.w3.org/2000/svg" xmlns:xlink="http://www.w3.org/1999/xlink" xml:space="preserve" xmlns:serif="http://www.serif.com/" style="fill-rule:evenodd;clip-rule:evenodd;stroke-linejoin:round;stroke-miterlimit:1.41421;"><g id="Logo"><circle id="Base" cx="632.85" cy="632.85" r="632.85" style="fill:#fff;"/><path id="Visor" d="M632.85,241.717c305.349,0 553.254,85.784 553.254,391.133c0,305.349 -247.905,553.254 -553.254,553.254c-305.349,0 -553.254,-247.905 -553.254,-553.254c0,-305.349 247.905,-391.133 553.254,-391.133Z" style="fill:#5676b1;"/><path id="Moon" d="M632.85,782.25c305.349,0 497.711,92.334 497.711,92.334c-89.789,184.356 -279.017,311.52 -497.711,311.52c-218.694,0 -407.922,-127.164 -497.711,-311.52c0,0 192.362,-92.334 497.711,-92.334Z" style="fill:#fff;fill-opacity:0.06;"/><g id="Text"><path d="M1943.02,964.295l0,51.222l-286.166,0l0,-624.401l59.688,0l0,573.179l226.478,0Z" style="fill:#5676b1;fill-rule:nonzero;"/><path d="M2304.96,1015.52l-43.178,0l-6.35,-33.019c-49.67,27.657 -93.131,41.485 -130.384,41.485c-71.964,0 -108.229,-41.203 -108.793,-123.61l0,-353.051l55.455,0l0,339.081c0,57.854 21.73,86.782 65.191,86.782c33.02,0 70.554,-12.7 112.604,-38.099l0,-387.764l55.455,0l0,468.195Z" style="fill:#5676b1;fill-rule:nonzero;"/><path d="M2473.01,578.648c35.559,-26.528 74.505,-39.792 116.837,-39.792c42.333,0 73.094,15.804 92.285,47.412c41.485,-31.89 85.087,-47.694 130.806,-47.412c35.277,0 62.229,11.006 80.855,33.019c18.626,22.013 27.798,52.21 27.516,90.591l0,353.051l-55.456,0l0,-340.775c0,-57.854 -22.295,-86.781 -66.884,-86.781c-31.326,0 -65.757,13.405 -103.291,40.216c2.258,14.957 3.528,26.387 3.81,34.289l0,353.051l-55.455,0l0,-340.775c0,-57.854 -22.295,-86.781 -66.885,-86.781c-35.842,0 -68.579,11.853 -98.211,35.559l0,391.997l-55.455,0l0,-471.581l42.755,0l6.773,34.712Z" style="fill:#5676b1;fill-rule:nonzero;"/><path d="M3086.83,685.325l0,74.505l193.458,0l0,-74.505c0,-65.191 -33.301,-97.928 -99.904,-98.21c-32.455,0 -56.161,7.902 -71.118,23.706c-14.958,15.804 -22.436,40.639 -22.436,74.504Zm0,192.189c0,34.148 7.478,58.983 22.436,74.504c14.957,15.522 38.663,23.424 71.118,23.706c66.603,0 99.904,-32.736 99.904,-98.21l0,-18.203l55.455,0l0,29.632c0,42.897 -13.546,76.198 -40.639,99.904c-27.092,23.424 -64.909,35.136 -113.45,35.136c-48.259,0 -85.37,-11.853 -111.334,-35.559c-25.964,-23.706 -38.946,-56.866 -38.946,-99.481l0,-215.047c0,-42.615 12.982,-75.775 38.946,-99.481c25.964,-23.706 63.075,-35.559 111.334,-35.559c48.259,0 85.934,11.853 113.027,35.559c27.093,23.706 40.78,56.866 41.062,99.481l0,131.653l-248.913,0l0,71.965Z" style="fill:#5676b1;fill-rule:nonzero;"/><path d="M3620.64,538.856c72.811,0 109.217,38.946 109.217,116.837l0,359.824l-55.455,0l0,-345.855c0,-53.056 -21.872,-79.725 -65.615,-80.007c-30.761,0 -67.873,12.84 -111.334,38.522l0,387.34l-55.455,0l0,-471.581l42.756,0l7.619,36.405c48.541,-27.657 91.297,-41.485 128.267,-41.485Z" style="fill:#5676b1;fill-rule:nonzero;"/><path d="M3950.83,974.031c43.462,0 80.432,-10.724 110.911,-32.172l0,-138.003l-95.248,0c-30.761,0 -53.197,5.926 -67.308,17.779c-14.111,11.853 -21.166,30.762 -21.166,56.725l0,24.553c0,47.412 24.27,71.118 72.811,71.118Zm-129.113,-69.425l0,-24.129c0,-80.996 46.001,-121.494 138.003,-121.494l102.021,0l0,-95.247c0,-26.246 -6.632,-45.578 -19.896,-57.995c-13.264,-12.418 -34.148,-18.626 -62.652,-18.626c-28.221,0 -48.541,5.926 -60.958,17.779c-12.418,11.853 -18.627,31.467 -18.627,58.842l0,22.436l-53.762,0l0,-27.939c0,-79.867 45.437,-119.659 136.31,-119.377c47.412,0 81.843,9.877 103.291,29.632c21.448,19.755 32.031,49.67 31.749,89.745l0,360.67l-44.025,0l-7.197,-34.712c-38.663,23.706 -81.983,35.559 -129.96,35.559c-76.198,0 -114.297,-38.381 -114.297,-115.144Z" style="fill:#5676b1;fill-rule:nonzero;"/><path d="M4521.05,1015.52l-43.179,0l-6.35,-33.019c-49.67,27.657 -93.131,41.485 -130.383,41.485c-71.965,0 -108.23,-41.203 -108.794,-123.61l0,-353.051l55.455,0l0,339.081c0,57.854 21.73,86.782 65.192,86.782c33.019,0 70.553,-12.7 112.603,-38.099l0,-387.764l55.456,0l0,468.195Z" style="fill:#5676b1;fill-rule:nonzero;"/><path d="M4602.33,594.311l0,-46.989l52.069,0l0,-104.137l55.455,0l0,104.137l102.444,0l0,46.989l-102.444,0l0,305.215c0,48.541 22.295,72.812 66.885,72.812c23.706,0 41.345,-2.681 52.915,-8.043l0,47.835c-20.319,5.644 -42.05,8.467 -65.191,8.467c-73.376,0 -110.064,-37.817 -110.064,-113.451l0,-312.835l-52.069,0Z" style="fill:#5676b1;fill-rule:nonzero;"/></g></g></svg>