<?xml version="1.0" encoding="UTF-8" standalone="no"?>
<!DOCTYPE svg PUBLIC "-//W3C//DTD SVG 1.1//EN" "http://www.w3.org/Graphics/SVG/1.1/DTD/svg11.dtd">
<svg width="4830px" height="1266px" version="1.1" xmlns="http://www.w3.org/2000/svg" xmlns:xlink="http://www.w3.org/1999/xlink" xml:space="preserve" xmlns:serif="http://www.serif.com/" style="fill-rule:evenodd;clip-rule:evenodd;stroke-linejoin:round;stroke-miterlimit:1.41421;">
    <g id="Logo">
        <circle id="Base" cx="632.85" cy="632.85" r="632.85" style="fill:#fff;"/>
        <path id="Visor" d="M632.85,241.717c305.349,0 553.254,85.784 553.254,391.133c0,305.349 -247.905,553.254 -553.254,553.254c-305.349,0 -553.254,-247.905 -553.254,-553.254c0,-305.349 247.905,-391.133 553.254,-391.133Z" style="fill:#5676b1;"/>
        <path id="Moon" d="M632.85,782.25c305.349,0 497.711,92.334 497.711,92.334c-89.789,184.356 -279.017,311.52 -497.711,311.52c-218.694,0 -407.922,-127.164 -497.711,-311.52c0,0 192.362,-92.334 497.711,-92.334Z" style="fill:#fff;fill-opacity:0.0588235;"/>
        <path d="M1943.02,964.298l0,51.222l-286.165,0l0,-624.4l59.688,0l0,573.178l226.477,0Z" style="fill:#5676b1;fill-rule:nonzero;"/>
        <path d="M2304.96,1015.52l-43.179,0l-6.35,-33.019c-49.67,27.657 -93.131,41.485 -130.383,41.485c-71.965,0 -108.229,-41.203 -108.794,-123.61l0,-353.05l55.455,0l0,339.081c0,57.854 21.731,86.781 65.192,86.781c33.019,0 70.554,-12.7 112.604,-38.099l0,-387.763l55.455,0l0,468.194Z" style="fill:#5676b1;fill-rule:nonzero;"/>
        <path d="M2473.02,578.651c35.559,-26.528 74.505,-39.792 116.837,-39.792c42.332,0 73.093,15.804 92.284,47.412c41.486,-31.89 85.088,-47.694 130.807,-47.412c35.277,0 62.228,11.007 80.854,33.019c18.626,22.013 27.798,52.21 27.516,90.591l0,353.051l-55.455,0l0,-340.774c0,-57.854 -22.295,-86.781 -66.885,-86.781c-31.326,0 -65.756,13.405 -103.291,40.215c2.258,14.958 3.528,26.387 3.81,34.289l0,353.051l-55.455,0l0,-340.774c0,-57.854 -22.295,-86.781 -66.885,-86.781c-35.841,0 -68.578,11.853 -98.211,35.559l0,391.996l-55.455,0l0,-471.581l42.756,0l6.773,34.712Z" style="fill:#5676b1;fill-rule:nonzero;"/>
        <path d="M3086.83,685.329l0,74.504l193.458,0l0,-74.504c0,-65.192 -33.301,-97.929 -99.904,-98.211c-32.454,0 -56.16,7.902 -71.118,23.706c-14.957,15.804 -22.436,40.639 -22.436,74.505Zm0,192.188c0,34.148 7.479,58.983 22.436,74.505c14.958,15.521 38.664,23.423 71.118,23.706c66.603,0 99.904,-32.737 99.904,-98.211l0,-18.203l55.456,0l0,29.633c0,42.896 -13.547,76.198 -40.639,99.904c-27.093,23.424 -64.91,35.135 -113.451,35.135c-48.258,0 -85.37,-11.853 -111.333,-35.559c-25.964,-23.706 -38.946,-56.866 -38.946,-99.48l0,-215.048c0,-42.615 12.982,-75.775 38.946,-99.481c25.963,-23.706 63.075,-35.559 111.333,-35.559c48.259,0 85.935,11.853 113.027,35.559c27.093,23.706 40.78,56.866 41.063,99.481l0,131.653l-248.914,0l0,71.965Z" style="fill:#5676b1;fill-rule:nonzero;"/>
        <path d="M3620.64,538.859c72.811,0 109.217,38.946 109.217,116.837l0,359.824l-55.456,0l0,-345.854c0,-53.057 -21.871,-79.726 -65.614,-80.008c-30.762,0 -67.873,12.841 -111.334,38.522l0,387.34l-55.455,0l0,-471.581l42.755,0l7.62,36.406c48.541,-27.657 91.296,-41.486 128.267,-41.486Z" style="fill:#5676b1;fill-rule:nonzero;"/>
        <path d="M3950.84,974.034c43.461,0 80.431,-10.724 110.91,-32.172l0,-138.003l-95.247,0c-30.762,0 -53.198,5.926 -67.308,17.779c-14.111,11.853 -21.167,30.762 -21.167,56.726l0,24.552c0,47.412 24.271,71.118 72.812,71.118Zm-129.113,-69.424l0,-24.13c0,-80.995 46.001,-121.493 138.003,-121.493l102.02,0l0,-95.248c0,-26.246 -6.632,-45.577 -19.896,-57.995c-13.264,-12.417 -34.148,-18.626 -62.651,-18.626c-28.222,0 -48.541,5.926 -60.959,17.779c-12.417,11.853 -18.626,31.467 -18.626,58.842l0,22.436l-53.762,0l0,-27.939c0,-79.867 45.437,-119.659 136.31,-119.377c47.412,0 81.842,9.878 103.29,29.633c21.449,19.755 32.032,49.669 31.75,89.744l0,360.671l-44.026,0l-7.196,-34.713c-38.664,23.706 -81.984,35.559 -129.96,35.559c-76.198,0 -114.297,-38.381 -114.297,-115.143Z" style="fill:#5676b1;fill-rule:nonzero;"/>
        <path d="M4521.05,1015.52l-43.179,0l-6.35,-33.019c-49.67,27.657 -93.131,41.485 -130.383,41.485c-71.965,0 -108.229,-41.203 -108.794,-123.61l0,-353.05l55.455,0l0,339.081c0,57.854 21.731,86.781 65.192,86.781c33.019,0 70.554,-12.7 112.604,-38.099l0,-387.763l55.455,0l0,468.194Z" style="fill:#5676b1;fill-rule:nonzero;"/>
        <path d="M4602.33,594.314l0,-46.988l52.069,0l0,-104.138l55.455,0l0,104.138l102.444,0l0,46.988l-102.444,0l0,305.216c0,48.541 22.295,72.811 66.885,72.811c23.706,0 41.344,-2.681 52.915,-8.043l0,47.835c-20.32,5.645 -42.05,8.467 -65.192,8.467c-73.376,0 -110.063,-37.817 -110.063,-113.451l0,-312.835l-52.069,0Z" style="fill:#5676b1;fill-rule:nonzero;"/>
    </g>
</svg>
